<?xml version="1.0" ?><!DOCTYPE svg  PUBLIC '-//W3C//DTD SVG 1.1//EN'  'http://www.w3.org/Graphics/SVG/1.1/DTD/svg11.dtd'><svg xmlns="http://www.w3.org/2000/svg" xmlns:xlink="http://www.w3.org/1999/xlink" version="1.1" id="Layer_1" width="512px" height="512px" viewBox="0 0 512 512" enable-background="new 0 0 512 512" xml:space="preserve"><g><path fill-rule="evenodd" clip-rule="evenodd" fill="#FFF584" d="M56.936,306.965c163.753,0,234.37,0,398.119,0l-46.205,197.4   c-132.943,0-172.766,0-305.705,0L56.936,306.965z"/><path fill-rule="evenodd" clip-rule="evenodd" fill="#FFF584" d="M161.98,319.337l68.766-119.105   c-7.454-2.203-14.504-5.358-21.003-9.33l-14.114,12.947c-2.647-1.807-5.215-3.724-7.687-5.754l-58.995,102.174   C113.336,327.311,146.367,346.38,161.98,319.337z"/><path fill-rule="evenodd" clip-rule="evenodd" fill="#FFF584" d="M350.01,319.337l-68.767-119.105   c8.153-2.407,15.816-5.952,22.811-10.454l14.162,12.779c1.996-1.422,3.943-2.909,5.837-4.462l58.99,102.174   C398.654,327.311,365.622,346.384,350.01,319.337z"/><polygon fill-rule="evenodd" clip-rule="evenodd" fill="#F5ACCC" points="241.778,370.717 391.706,370.717 391.706,341.01    423.386,373.339 455.055,405.667 423.386,437.995 391.706,470.32 391.706,440.616 241.778,440.616  "/><path fill-rule="evenodd" clip-rule="evenodd" fill="#F5ACCC" d="M314.445,114.801c0.116,32.277-25.967,58.546-58.242,58.659   c-32.279,0.115-58.546-25.965-58.659-58.245c-0.115-32.277,25.965-58.549,58.244-58.663   C288.064,56.441,314.334,82.522,314.445,114.801L314.445,114.801z M273.903,9.096c-12.577-2.111-25.509-1.979-38.046,0.397   l-0.824,19.136c-9.755,2.36-18.89,6.325-27.092,11.61l-14.167-12.784c-10.402,7.407-19.428,16.624-26.619,27.188l12.943,14.114   c-5.076,8.317-8.831,17.538-10.957,27.362l-19.055,0.978c-0.981,5.823-1.5,11.805-1.5,17.911c0,6.881,0.659,13.612,1.899,20.133   l19.129,0.829c2.362,9.756,6.33,18.89,11.611,27.092l-12.779,14.168c7.405,10.402,16.618,19.427,27.182,26.619l14.114-12.947   c8.321,5.084,17.539,8.829,27.36,10.957l0.983,19.058c5.823,0.981,11.806,1.495,17.907,1.495c6.886,0,13.613-0.655,20.136-1.895   l0.827-19.132c9.755-2.358,18.895-6.327,27.097-11.607l14.162,12.779c10.401-7.408,19.428-16.626,26.619-27.188l-12.945-14.107   c5.083-8.324,8.832-17.542,10.956-27.363l19.061-0.982c0.978-5.824,1.496-11.806,1.496-17.907c0-6.885-0.654-13.611-1.895-20.138   l-19.134-0.823c-2.361-9.76-6.325-18.894-11.611-27.097l12.783-14.163c-7.411-10.406-16.624-19.434-27.185-26.619l-14.114,12.944   c-8.324-5.077-17.54-8.831-27.362-10.957L273.903,9.096z"/><g><path fill="#5B57A4" d="M444.781,384.301l17.602-75.187c0.199-0.68,0.307-1.567,0.307-2.313c0-4.219-3.417-7.801-7.635-7.801    h-63.897c-0.459-1-0.966-1.748-1.525-2.713l-55.845-96.647c1.496-1.375,2.952-2.746,4.373-4.199    c4.756-4.859,9.074-10.09,12.884-15.672c2.047-2.871,1.882-6.87-0.601-9.567l-9.188-10.008c1.603-3.021,3.054-6.134,4.333-9.334    c1.264-3.158,2.365-6.373,3.288-9.647l13.112-0.675c3.626-0.037,6.813-2.668,7.431-6.366c0.543-3.229,0.949-6.421,1.214-9.564    c0.267-3.195,0.401-6.399,0.401-9.599c0-3.443-0.181-7.051-0.533-10.804c-0.347-3.716-0.857-7.299-1.507-10.738l-0.005,0.006    c-0.633-3.405-3.547-6.053-7.155-6.206l-13.59-0.584c-1.011-3.309-2.192-6.533-3.532-9.656c-1.349-3.148-2.856-6.201-4.51-9.155    l9.01-9.982l-0.007-0.008c2.336-2.595,2.651-6.547,0.541-9.51c-3.963-5.571-8.411-10.77-13.273-15.529    c-4.861-4.756-10.116-9.072-15.698-12.882c-2.871-2.048-6.876-1.881-9.578,0.602l-10.012,9.183    c-3.021-1.605-6.139-3.053-9.341-4.332c-3.154-1.267-6.371-2.362-9.646-3.291l-0.672-13.106c-0.034-3.625-2.669-6.814-6.37-7.432    c-6.677-1.122-13.724-1.65-20.591-1.575C247.699,0.079,241,0.746,234,2.008v0.006c-3,0.634-5.818,3.543-5.977,7.151l-0.469,13.59    c-3.31,1.014-6.473,2.194-9.596,3.532c-3.146,1.352-6.176,2.855-9.131,4.512l-9.969-9.009l0.004,0.008    c-2.594-2.341-6.547-2.652-9.506-0.543c-5.57,3.965-10.768,8.413-15.527,13.271c-4.761,4.859-9.075,10.112-12.886,15.698    c-2.046,2.871-1.88,6.879,0.604,9.58l9.186,10.014c-1.604,3.014-3.054,6.134-4.333,9.333c-1.265,3.157-2.365,6.375-3.288,9.65    l-13.108,0.671c-3.63,0.038-6.817,2.669-7.435,6.371c-0.543,3.224-0.951,6.418-1.211,9.557c-0.265,3.198-0.407,6.401-0.407,9.607    c0,3.439,0.183,7.273,0.535,11.021c0.348,3.717,0.858,6.971,1.508,10.971H143c0.638,3,3.544,5.818,7.152,5.977l13.593,0.472    c1.011,3.306,2.192,6.47,3.529,9.589c1.352,3.154,2.859,6.184,4.512,9.132l-9.006,9.974l0.004-0.003    c-2.336,2.595-2.647,6.545-0.542,9.505c3.964,5.57,8.412,10.764,13.274,15.527c0.884,0.867,1.778,1.715,2.688,2.551    l-55.847,96.729c-0.093,0.156-0.175,0.15-0.249,0.307c-0.456,0.808-0.874,2.242-1.265,2.242H57v0.337    c-1,0-1.185,0.066-1.761,0.203c-4.101,0.953-6.669,5.055-5.712,9.156L95.63,505.697c0.63,3.581,3.748,6.303,7.515,6.303H409    v-0.008c3,0,6.532-2.379,7.348-5.899l15.33-65.649l28.827-29.44c2.905-2.954,2.905-7.71-0.009-10.676L444.781,384.301z     M376.445,304.083c3.961,6.857,3.717,12.624,1.272,16.308c-0.868,1.312-1.992,2.369-3.271,3.106    c-1.293,0.745-2.777,1.196-4.331,1.292c-4.432,0.271-9.564-2.396-13.518-9.238l-64.18-111.173c0.52-0.215,1.038-0.432,1.55-0.65    c3.149-1.35,6.211-2.858,9.163-4.511l9.985,9.005l0.008-0.004c2.336,2.11,5.779,2.57,8.604,1.096L376.445,304.083z M329.676,299    H182.313l47.91-82.822l0.24,4.738c0.038,3.63,2.668,6.859,6.369,7.477c3.222,0.543,6.416,0.969,9.556,1.231    c3.199,0.264,6.404,0.413,9.605,0.413c3.443,0,7.286-0.179,11.036-0.527c3.715-0.35,6.97-0.853,10.97-1.506V228    c3-0.635,5.813-3.547,5.971-7.155l-0.075-1.179L329.676,299z M177.014,133.998c-0.815-3.376-3.765-4.998-7.068-5.998h-0.011    l-0.021,0.178l-12.896-0.465c-0.146-1.132-0.273-2.211-0.38-3.326c-0.27-2.908-0.411-6.025-0.411-9.401    c0-2.846,0.115-5.618,0.344-8.341c0.063-0.771,0.133-1.523,0.216-2.271l12.747-0.516c3.512-0.178,6.35-2.858,7.055-5.858h0.012    c0.974-5,2.298-8.949,3.94-13.045c1.685-4.213,3.721-8.126,6.065-11.964c1.81-2.966,1.345-6.991-0.901-8.991h0.004l-8.736-9.721    c2.407-3.12,4.983-6.185,7.713-8.971c2.729-2.788,5.623-5.471,8.659-7.922l9.493,8.544c2.688,2.419,6.632,2.557,9.477,0.568    c3.711-2.372,7.615-4.45,11.669-6.187c4.141-1.777,8.62-3.217,13.021-4.288c3.376-0.811,4.996-3.763,5.996-7.069v-0.011    l-0.176-0.022l0.463-12.887c3.912-0.507,7.781-0.778,11.677-0.821c3.886-0.036,7.772,0.155,11.684,0.573l0.642,12.755    c0.18,3.517,2.709,6.35,5.994,7.058l-0.008,0.014c4.497,0.97,8.811,2.293,12.908,3.935c4.217,1.686,8.26,3.725,12.098,6.065    c2.971,1.81,6.689,1.35,9.127-0.895l9.52-8.732c3.115,2.401,6.079,4.978,8.863,7.708c2.794,2.729,5.418,5.623,7.871,8.658    l-8.566,9.5c-2.42,2.687-2.57,6.626-0.58,9.473c2.374,3.713,4.445,7.613,6.18,11.665c1.777,4.146,3.216,8.615,4.279,13.021    c0.816,3.372,3.768,5.989,7.073,5.989h0.008h0.025l12.892,0.38c0.147,1.132,0.275,2.168,0.38,3.288    c0.271,2.902,0.414,6.002,0.414,9.383c0,2.844-0.119,5.605-0.343,8.326c-0.067,0.77-0.137,1.518-0.216,2.271l-12.747,0.649    c-3.516,0.18-6.35,2.711-7.059,5.997l-0.013-0.006c-0.973,4.495-2.3,8.811-3.94,12.906c-1.684,4.218-3.86,8.261-6.201,12.102    c-1.81,2.964-1.248,6.684,0.752,9.119v0.005l8.877,9.518c-2.407,3.119-4.91,6.08-7.639,8.869    c-2.736,2.787-5.591,5.416-8.629,7.869l-9.477-8.567c-2.688-2.419-6.62-2.572-9.465-0.579c-3.71,2.373-7.613,4.444-11.67,6.182    c-4.141,1.775-8.608,3.213-13.009,4.279c-3.372,0.81-5.989,3.765-5.989,7.066v0.012v0.021l-0.381,12.895    c-1.13,0.145-2.164,0.273-3.283,0.378c-2.902,0.272-6.004,0.412-9.386,0.412c-2.846,0-5.606-0.113-8.333-0.343    c-0.768-0.062-1.513-0.136-2.263-0.215l-0.647-12.742c-0.18-3.516-2.715-6.351-5.997-7.059l0.007-0.014    c-4.502-0.973-8.816-2.299-12.918-3.939c-4.209-1.689-8.254-3.865-12.092-6.211c-2.967-1.811-6.687-1.252-9.121,0.748h-0.004    l-9.52,8.881c-3.115-2.404-6.078-4.908-8.866-7.637c-2.791-2.729-5.417-5.586-7.87-8.621l8.565-9.479    c2.421-2.691,2.573-6.622,0.582-9.463c-2.372-3.716-4.445-7.706-6.181-11.761C179.52,142.78,178.079,138.396,177.014,133.998z     M135.323,304.441c0.074-0.118,0.148-0.237,0.219-0.358l54.682-94.708l0.989,0.682c2.872,2.048,6.878,1.881,9.58-0.604    l10.012-9.184c2.842,1.509,5.771,2.883,8.773,4.104l-63.939,110.752c-0.087,0.127-0.17,0.262-0.249,0.396    c-3.964,6.864-9.093,9.539-13.515,9.268c-1.434-0.088-2.798-0.476-4.017-1.118l-0.286-0.178c-1.309-0.755-2.448-1.812-3.303-3.103    C131.867,316.765,131.591,311.136,135.323,304.441z M402.806,497H109.188L66.554,315h50.673c0.089,5,1.7,10.02,4.339,13.996    c2.18,3.285,5.06,5.867,8.373,7.78c0.165,0.096,0.331,0.139,0.501,0.217c3.21,1.764,6.802,2.8,10.543,3.03    c9.681,0.602,20.311-4.253,27.592-16.854c0.079-0.142,0.154-0.09,0.229-0.23l4.694-7.939h164.999l4.922,8.326    c7.286,12.623,17.918,17.374,27.589,16.772c3.923-0.241,7.687-1.449,11.015-3.372c3.348-1.929,6.236-4.432,8.403-7.701    c2.637-3.981,4.25-9.025,4.339-14.025h50.673l-13.294,56.6l-34.591-35.402c-1.4-1.665-3.536-2.771-5.882-2.771    c-4.217,0-7.67,3.369-7.67,7.584V363H241.778c-4.218,0-7.778,3.496-7.778,7.717v69.899c0,4.218,3.561,7.384,7.778,7.384H384v22    h0.098c0,2,0.759,4.099,2.272,5.585c2.996,2.95,7.818,2.992,10.768-0.005l13.928-14.043L402.806,497z M399,451.648v-11.032    c0-4.216-3.075-7.616-7.294-7.616H249v-55h142.706c4.219,0,7.294-3.07,7.294-7.283v-11.033l45.055,45.983L399,451.648z"/><path fill="#5B57A4" d="M256,181.063V181l0,0V181.063c18-0.066,34.863-7.415,46.77-19.403    c11.908-11.996,19.347-28.66,19.281-46.66H322v-0.199V115h0.051c-0.062-18-7.41-34.861-19.399-46.768    C290.659,56.323,274,48.885,256,48.946V49l0,0v-0.054c-18,0.068-34.867,7.515-46.777,19.502    c-11.908,11.999-19.299,28.541-19.237,46.767c0.066,18.261,7.393,34.765,19.381,46.666C221.364,173.796,238,181.129,256,181.063z     M220.021,79.191C229.199,69.95,242,64.207,256,64.158V64l0,0v0.158c14-0.044,26.679,5.701,35.914,14.874    C301.157,88.208,306.793,101,306.842,115H307v-0.199V115h-0.158c0.049,14-5.701,26.686-14.873,35.922    C282.793,160.16,270,165.803,256,165.854V166l0,0v-0.146c-14,0.049-26.685-5.599-35.923-14.771    c-9.237-9.177-14.881-21.858-14.93-35.869C205.102,101.167,210.852,88.426,220.021,79.191z"/></g></g></svg>